<?xml version="1.0" standalone="yes"?>

<svg version="1.1" viewBox="0.0 0.0 290.0 268.0" fill="none" stroke="none" stroke-linecap="square" stroke-miterlimit="10" xmlns="http://www.w3.org/2000/svg" xmlns:xlink="http://www.w3.org/1999/xlink"><clipPath id="p.0"><path d="m0 0l290.0 0l0 268.0l-290.0 0l0 -268.0z" clip-rule="nonzero"></path></clipPath><g clip-path="url(#p.0)"><path fill="#000000" fill-opacity="0.0" d="m0 0l290.95276 0l0 268.80054l-290.95276 0z" fill-rule="nonzero"></path><path fill="#ffd966" d="m123.83465 102.091866l0 0c0 -38.57296 31.269554 -69.84252 69.84252 -69.84252l0 0c18.523392 0 36.2881 7.358387 49.386124 20.456402c13.098022 13.098011 20.45639 30.862728 20.45639 49.38612l0 0c0 38.57296 -31.269562 69.84252 -69.842514 69.84252l0 0c-38.572968 0 -69.84252 -31.269562 -69.84252 -69.84252z" fill-rule="nonzero"></path><path fill="#b4a7d6" d="m38.401573 79.75249l0 0c0 -6.1167297 4.9585915 -11.075325 11.075325 -11.075325l165.4084 0c2.9373627 0 5.75441 1.1668625 7.831436 3.2438889c2.0770264 2.0770264 3.2438965 4.894081 3.2438965 7.831436l0 94.54227c0 6.1167297 -4.958603 11.075317 -11.075333 11.075317l-165.4084 0c-6.1167336 0 -11.075325 -4.9585876 -11.075325 -11.075317z" fill-rule="nonzero"></path><path stroke="#b4a7d6" stroke-width="2.0" stroke-linejoin="round" stroke-linecap="butt" d="m38.401573 79.75249l0 0c0 -6.1167297 4.9585915 -11.075325 11.075325 -11.075325l165.4084 0c2.9373627 0 5.75441 1.1668625 7.831436 3.2438889c2.0770264 2.0770264 3.2438965 4.894081 3.2438965 7.831436l0 94.54227c0 6.1167297 -4.958603 11.075317 -11.075333 11.075317l-165.4084 0c-6.1167336 0 -11.075325 -4.9585876 -11.075325 -11.075317z" fill-rule="nonzero"></path><path fill="#674ea7" d="m48.37008 68.18372l167.62204 0c2.643814 0 5.1793365 1.0502548 7.0487976 2.9197083c1.8694458 1.869461 2.9197083 4.404991 2.9197083 7.0487976l0 9.968506c0 8.621216E-4 -7.019043E-4 0.0015640259 -0.0015716553 0.0015640259l-187.5575 -0.0015640259l0 0c-8.621216E-4 0 -0.0015602112 -7.019043E-4 -0.0015602112 -0.0015640259l0.0015602112 -9.966942l0 0c0 -5.5054474 4.4630547 -9.968506 9.968506 -9.968506z" fill-rule="nonzero"></path><path stroke="#674ea7" stroke-width="2.0" stroke-linejoin="round" stroke-linecap="butt" d="m48.37008 68.18372l167.62204 0c2.643814 0 5.1793365 1.0502548 7.0487976 2.9197083c1.8694458 1.869461 2.9197083 4.404991 2.9197083 7.0487976l0 9.968506c0 8.621216E-4 -7.019043E-4 0.0015640259 -0.0015716553 0.0015640259l-187.5575 -0.0015640259l0 0c-8.621216E-4 0 -0.0015602112 -7.019043E-4 -0.0015602112 -0.0015640259l0.0015602112 -9.966942l0 0c0 -5.5054474 4.4630547 -9.968506 9.968506 -9.968506z" fill-rule="nonzero"></path><path fill="#674ea7" d="m38.412075 88.12337l93.779526 81.25984l93.779526 -81.25984z" fill-rule="nonzero"></path><path stroke="#674ea7" stroke-width="2.0" stroke-linejoin="round" stroke-linecap="butt" d="m38.412075 88.12337l93.779526 81.25984l93.779526 -81.25984z" fill-rule="nonzero"></path></g></svg>

